<mxfile host="app.diagrams.net" agent="Mozilla/5.0 (Windows NT 10.0; Win64; x64) AppleWebKit/537.36 (KHTML, like Gecko) Chrome/130.0.0.0 Safari/537.36" version="24.8.3">
  <diagram name="Page-1" id="kcZWjYqTtWK64_9vpjtn">
    <mxGraphModel dx="1218" dy="1688" grid="1" gridSize="10" guides="1" tooltips="1" connect="1" arrows="1" fold="1" page="1" pageScale="1" pageWidth="827" pageHeight="1169" math="0" shadow="0">
      <root>
        <mxCell id="0" />
        <mxCell id="1" parent="0" />
        <mxCell id="jp5EeAPTq1nhvSwrTvIk-12" value="" style="rounded=0;whiteSpace=wrap;html=1;" vertex="1" parent="1">
          <mxGeometry x="30" y="150" width="830" height="330" as="geometry" />
        </mxCell>
        <mxCell id="jp5EeAPTq1nhvSwrTvIk-3" value="&lt;h1 style=&quot;margin-top: 0px;&quot;&gt;Функциональные&lt;/h1&gt;&lt;p style=&quot;font-size: 14px;&quot;&gt;1. Поддержка девайсов:&lt;br&gt;&lt;span style=&quot;white-space: pre;&quot;&gt;&#x9;&lt;/span&gt;- ПК&lt;br&gt;&lt;span style=&quot;white-space: pre;&quot;&gt;&#x9;&lt;/span&gt;- ТВ&lt;br&gt;&lt;span style=&quot;white-space: pre;&quot;&gt;&#x9;&lt;/span&gt;- Планшеты&lt;br&gt;&lt;span style=&quot;white-space: pre;&quot;&gt;&#x9;&lt;/span&gt;- Смартфоны&lt;br&gt;2. Просмотр видео рекомендаций на главной странице&lt;br&gt;3. Показ баннера с авто проигрыванием&amp;nbsp;&lt;br&gt;&lt;span style=&quot;background-color: initial;&quot;&gt;4. Просмотр видео на отдельной странице&lt;br&gt;5. Поиск по критериям:&lt;br&gt;&lt;span style=&quot;white-space: pre;&quot;&gt;&#x9;&lt;/span&gt;- имя актера&lt;br&gt;&lt;span style=&quot;white-space: pre;&quot;&gt;&#x9;&lt;/span&gt;- жанр&lt;br&gt;&lt;span style=&quot;white-space: pre;&quot;&gt;&#x9;&lt;/span&gt;- название&lt;br&gt;6. Просмотр видео превью&amp;nbsp;&lt;br&gt;7. Видео проигрыватель&lt;/span&gt;&lt;/p&gt;" style="text;html=1;whiteSpace=wrap;overflow=hidden;rounded=0;" vertex="1" parent="1">
          <mxGeometry x="70" y="170" width="400" height="410" as="geometry" />
        </mxCell>
        <mxCell id="jp5EeAPTq1nhvSwrTvIk-6" value="Требования" style="text;strokeColor=none;fillColor=none;html=1;fontSize=24;fontStyle=1;verticalAlign=middle;align=center;" vertex="1" parent="1">
          <mxGeometry x="365" y="70" width="160" height="40" as="geometry" />
        </mxCell>
        <mxCell id="jp5EeAPTq1nhvSwrTvIk-9" value="&lt;h1 style=&quot;margin-top: 0px;&quot;&gt;Дополнительные&lt;/h1&gt;&lt;p&gt;&lt;font style=&quot;font-size: 14px;&quot;&gt;1. Поддержка нескольких разрешений&lt;br&gt;2. Авто изменение выбранного качества в зависимости от условий&amp;nbsp;&lt;br&gt;3. Оптимизированные изображения и превью&lt;br&gt;4. Оптимизация приложения&lt;/font&gt;&lt;/p&gt;" style="text;html=1;whiteSpace=wrap;overflow=hidden;rounded=0;" vertex="1" parent="1">
          <mxGeometry x="510" y="170" width="270" height="280" as="geometry" />
        </mxCell>
      </root>
    </mxGraphModel>
  </diagram>
</mxfile>
